<mxfile host="app.diagrams.net" modified="2024-04-10T14:27:09.835Z" agent="Mozilla/5.0 (Windows NT 10.0; Win64; x64) AppleWebKit/537.36 (KHTML, like Gecko) Chrome/123.0.0.0 Safari/537.36" etag="llVLg-NUnCe9IJGaDzr4" version="24.0.5" type="github">
  <diagram name="Page-1" id="EHrEFTinhFLgnicq1KQY">
    <mxGraphModel dx="683" dy="355" grid="1" gridSize="10" guides="1" tooltips="1" connect="1" arrows="1" fold="1" page="1" pageScale="1" pageWidth="827" pageHeight="1169" math="0" shadow="0">
      <root>
        <mxCell id="0" />
        <mxCell id="1" parent="0" />
        <mxCell id="KYpcjjvEXtdcIM45c5xp-6" value="Addtional Belt Pulley" style="swimlane;fontStyle=1;childLayout=stackLayout;horizontal=1;startSize=26;horizontalStack=0;resizeParent=1;resizeParentMax=0;resizeLast=0;collapsible=1;marginBottom=0;align=center;fontSize=14;" vertex="1" parent="1">
          <mxGeometry x="80" y="330" width="300" height="206" as="geometry" />
        </mxCell>
        <mxCell id="KYpcjjvEXtdcIM45c5xp-13" value="efficiency&lt;span class=&quot;eusoft-eudic-chrome-extension-translate-content&quot;&gt;&lt;/span&gt;" style="text;strokeColor=none;fillColor=none;spacingLeft=4;spacingRight=4;overflow=hidden;rotatable=0;points=[[0,0.5],[1,0.5]];portConstraint=eastwest;fontSize=12;whiteSpace=wrap;html=1;" vertex="1" parent="KYpcjjvEXtdcIM45c5xp-6">
          <mxGeometry y="26" width="300" height="30" as="geometry" />
        </mxCell>
        <mxCell id="KYpcjjvEXtdcIM45c5xp-14" value="torque Function&lt;span class=&quot;eusoft-eudic-chrome-extension-translate-content&quot;&gt;&lt;/span&gt;" style="text;strokeColor=none;fillColor=none;spacingLeft=4;spacingRight=4;overflow=hidden;rotatable=0;points=[[0,0.5],[1,0.5]];portConstraint=eastwest;fontSize=12;whiteSpace=wrap;html=1;" vertex="1" parent="KYpcjjvEXtdcIM45c5xp-6">
          <mxGeometry y="56" width="300" height="30" as="geometry" />
        </mxCell>
        <mxCell id="KYpcjjvEXtdcIM45c5xp-7" value="diameterDriverPulleyRoll" style="text;strokeColor=none;fillColor=none;spacingLeft=4;spacingRight=4;overflow=hidden;rotatable=0;points=[[0,0.5],[1,0.5]];portConstraint=eastwest;fontSize=12;whiteSpace=wrap;html=1;" vertex="1" parent="KYpcjjvEXtdcIM45c5xp-6">
          <mxGeometry y="86" width="300" height="30" as="geometry" />
        </mxCell>
        <mxCell id="KYpcjjvEXtdcIM45c5xp-8" value="inertiaDriverPulley" style="text;strokeColor=none;fillColor=none;spacingLeft=4;spacingRight=4;overflow=hidden;rotatable=0;points=[[0,0.5],[1,0.5]];portConstraint=eastwest;fontSize=12;whiteSpace=wrap;html=1;" vertex="1" parent="KYpcjjvEXtdcIM45c5xp-6">
          <mxGeometry y="116" width="300" height="30" as="geometry" />
        </mxCell>
        <mxCell id="KYpcjjvEXtdcIM45c5xp-11" value="massBelt" style="text;strokeColor=none;fillColor=none;spacingLeft=4;spacingRight=4;overflow=hidden;rotatable=0;points=[[0,0.5],[1,0.5]];portConstraint=eastwest;fontSize=12;whiteSpace=wrap;html=1;" vertex="1" parent="KYpcjjvEXtdcIM45c5xp-6">
          <mxGeometry y="146" width="300" height="30" as="geometry" />
        </mxCell>
        <mxCell id="KYpcjjvEXtdcIM45c5xp-12" value="inertiaAdditional" style="text;strokeColor=none;fillColor=none;spacingLeft=4;spacingRight=4;overflow=hidden;rotatable=0;points=[[0,0.5],[1,0.5]];portConstraint=eastwest;fontSize=12;whiteSpace=wrap;html=1;" vertex="1" parent="KYpcjjvEXtdcIM45c5xp-6">
          <mxGeometry y="176" width="300" height="30" as="geometry" />
        </mxCell>
      </root>
    </mxGraphModel>
  </diagram>
</mxfile>
